<?xml version="1.0" standalone="no"?>
<!DOCTYPE svg PUBLIC "-//W3C//DTD SVG 20010904//EN"
 "http://www.w3.org/TR/2001/REC-SVG-20010904/DTD/svg10.dtd">
<svg version="1.0" xmlns="http://www.w3.org/2000/svg"
 width="300.000000pt" height="343.000000pt" viewBox="0 0 300.000000 343.000000"
 preserveAspectRatio="xMidYMid meet">
<metadata>
Created by potrace 1.10, written by Peter Selinger 2001-2011
</metadata>
<g transform="translate(0.000000,343.000000) scale(0.100000,-0.100000)"
fill="#000000" stroke="none">
<path d="M1040 3210 c-9 -6 -10 -10 -3 -10 6 0 15 5 18 10 8 12 4 12 -15 0z"/>
<path d="M1075 3200 c-4 -6 6 -10 22 -10 22 0 25 2 13 10 -19 12 -27 12 -35 0z"/>
<path d="M945 3187 c10 -8 25 -12 33 -10 16 7 14 9 -23 17 -28 7 -29 6 -10 -7z"/>
<path d="M1148 3180 c-7 -11 -23 -20 -35 -20 -13 0 -23 -4 -23 -8 0 -5 14 -7
30 -4 17 2 30 10 30 18 0 14 11 18 43 15 9 -1 17 3 17 8 0 19 -49 12 -62 -9z"/>
<path d="M770 3180 c-11 -7 -3 -10 29 -10 46 0 51 8 10 15 -13 2 -31 0 -39 -5z"/>
<path d="M1035 3170 c3 -5 14 -10 23 -10 15 0 15 2 2 10 -20 13 -33 13 -25 0z"/>
<path d="M590 3160 c0 -5 7 -7 15 -4 8 4 15 8 15 10 0 2 -7 4 -15 4 -8 0 -15
-4 -15 -10z"/>
<path d="M878 3163 c7 -3 16 -2 19 1 4 3 -2 6 -13 5 -11 0 -14 -3 -6 -6z"/>
<path d="M1170 3151 c0 -6 21 -13 48 -17 44 -6 66 -20 56 -35 -2 -4 -37 2 -79
13 -49 13 -80 16 -91 10 -15 -8 -15 -10 0 -15 9 -4 16 -2 16 2 0 5 11 4 24 -2
13 -7 22 -15 20 -19 -3 -5 24 -8 60 -8 36 0 66 -4 66 -8 0 -5 -26 -7 -57 -5
-68 4 -104 -3 -100 -20 2 -12 -66 -26 -145 -30 -20 -1 -34 -5 -32 -8 6 -10
-24 -19 -59 -18 -30 1 -31 1 -7 9 l25 7 -29 8 c-22 6 -32 4 -42 -10 -16 -22
-62 -46 -66 -34 -2 4 -8 -3 -15 -16 l-11 -25 26 18 c42 29 63 35 127 37 59 1
123 12 240 41 108 27 203 37 246 26 21 -5 39 -6 39 -2 0 8 -43 19 -93 24 -28
3 -41 11 -43 27 -1 5 -2 13 -3 18 -1 8 -89 41 -110 41 -6 0 -11 -4 -11 -9z"/>
<path d="M465 3134 c-27 -7 -54 -13 -59 -14 -6 0 -2 -6 9 -13 17 -13 15 -14
-16 -21 -19 -3 -35 -2 -37 3 -6 19 -76 -15 -128 -62 -54 -50 -70 -81 -36 -75
9 2 17 8 17 15 0 6 3 15 8 19 4 4 7 0 7 -9 0 -15 3 -15 20 -5 13 8 16 16 10
22 -12 12 -13 37 -2 34 11 -2 45 14 71 34 13 10 27 15 32 12 25 -15 51 -11 74
12 13 13 33 24 44 24 11 0 22 4 25 9 3 5 16 7 29 4 12 -3 20 -4 17 -2 -28 25
-37 26 -85 13z"/>
<path d="M548 3143 c6 -2 18 -2 25 0 6 3 1 5 -13 5 -14 0 -19 -2 -12 -5z"/>
<path d="M645 3140 c-16 -7 -12 -9 18 -9 23 -1 36 3 32 9 -7 12 -23 12 -50 0z"/>
<path d="M710 3134 c0 -20 28 -43 53 -44 10 0 25 -6 32 -14 9 -8 25 -11 42 -8
l28 6 -35 10 c-19 5 -37 13 -40 17 -3 3 -20 10 -37 14 -36 7 -43 21 -15 28 13
4 11 5 -5 6 -15 1 -23 -5 -23 -15z"/>
<path d="M804 3139 c-35 -8 -26 -11 48 -15 32 -2 60 1 63 5 6 11 -72 18 -111
10z"/>
<path d="M975 3130 c7 -11 105 -14 105 -2 0 4 -25 8 -56 10 -36 2 -53 -1 -49
-8z"/>
<path d="M565 3120 c2 -4 -20 -12 -50 -19 -29 -7 -58 -17 -62 -24 -15 -19 -13
-57 2 -57 18 0 32 23 17 28 -25 8 -10 20 46 38 31 10 63 19 71 20 28 5 29 19
1 20 -16 1 -27 -2 -25 -6z"/>
<path d="M655 3095 c17 -7 34 -10 40 -7 5 3 -1 9 -15 13 -42 12 -57 8 -25 -6z"/>
<path d="M893 3103 c-21 -3 -30 -9 -27 -17 6 -16 59 -9 75 10 9 11 8 14 -2 12
-8 0 -28 -3 -46 -5z"/>
<path d="M1070 3090 c0 -5 -11 -12 -25 -16 -14 -3 -22 -10 -19 -16 3 -5 11 -4
20 3 7 6 20 9 29 6 8 -4 17 -1 21 5 4 7 9 6 14 -2 5 -8 10 -8 14 -2 3 6 -8 15
-24 21 -18 6 -30 6 -30 1z"/>
<path d="M718 3068 c5 -5 16 -8 23 -6 8 3 3 7 -10 11 -17 4 -21 3 -13 -5z"/>
<path d="M966 3070 c-19 -6 -19 -7 2 -12 12 -4 24 -2 27 2 8 13 -8 18 -29 10z"/>
<path d="M508 3063 c7 -3 16 -2 19 1 4 3 -2 6 -13 5 -11 0 -14 -3 -6 -6z"/>
<path d="M331 3040 c-13 -11 -29 -20 -37 -20 -8 0 -14 -4 -14 -10 0 -14 27
-12 33 3 3 6 6 1 6 -13 1 -24 2 -24 21 8 11 17 24 32 30 32 5 0 10 5 10 10 0
16 -23 11 -49 -10z"/>
<path d="M608 3053 c7 -3 16 -2 19 1 4 3 -2 6 -13 5 -11 0 -14 -3 -6 -6z"/>
<path d="M895 3050 l-40 -6 32 -5 c18 -3 38 -2 45 2 19 12 7 15 -37 9z"/>
<path d="M400 3029 c0 -6 -11 -20 -25 -31 -14 -11 -30 -29 -37 -41 -10 -19 -9
-20 4 -9 13 10 17 10 21 0 2 -7 11 3 20 23 8 20 20 40 26 43 14 9 14 26 1 26
-5 0 -10 -5 -10 -11z"/>
<path d="M530 3030 c-11 -8 -7 -9 15 -4 37 8 45 14 19 14 -10 0 -26 -5 -34
-10z"/>
<path d="M773 3027 c-3 -5 -16 -6 -28 -3 -13 3 -27 2 -30 -4 -3 -5 -15 -10
-26 -10 -14 0 -19 -7 -19 -25 0 -14 -4 -25 -10 -25 -5 0 -6 8 -3 18 6 16 6 16
-10 0 -19 -18 -23 -53 -7 -63 6 -3 10 1 10 9 0 9 9 21 19 28 10 6 17 17 14 24
-6 16 15 28 57 31 52 4 69 8 81 20 8 8 4 11 -16 10 -15 -1 -29 -6 -32 -10z"/>
<path d="M1215 3020 c-22 -11 -52 -20 -67 -20 -15 0 -30 -5 -34 -11 -5 -8 1
-10 19 -5 14 3 29 2 32 -4 3 -5 -2 -10 -12 -10 -10 0 -30 -7 -45 -14 -21 -11
-43 -13 -90 -7 l-63 8 70 3 70 2 -54 10 c-40 7 -60 7 -77 -3 -13 -6 -21 -15
-19 -19 3 -4 -9 -10 -25 -12 -36 -5 -38 -1 -7 12 19 8 17 9 -13 7 -23 -1 -34
-7 -32 -15 1 -8 -2 -11 -8 -7 -9 6 -75 -56 -121 -114 -16 -20 -19 -21 -14 -6
11 34 -8 7 -23 -33 -30 -82 -41 -122 -32 -122 6 0 10 7 10 15 0 27 46 108 90
158 67 76 106 92 227 92 55 0 99 3 97 7 -3 4 8 10 23 14 15 4 45 15 66 26 27
13 48 17 70 12 46 -9 29 4 -19 15 -21 5 -29 9 -18 10 12 1 27 8 34 16 16 20
12 19 -35 -5z"/>
<path d="M1308 3033 c-20 -2 -39 -11 -42 -19 -5 -12 -2 -12 15 -3 12 6 36 8
53 5 20 -4 26 -3 17 3 -11 7 -9 10 10 14 30 5 0 5 -53 0z"/>
<path d="M1450 3020 c0 -5 -6 -7 -14 -4 -7 3 -20 -1 -27 -8 -8 -8 -29 -24 -47
-37 -18 -13 -31 -25 -29 -28 7 -6 61 23 76 41 8 10 29 16 53 16 35 0 39 2 28
15 -14 17 -40 20 -40 5z"/>
<path d="M415 2993 c-14 -34 -15 -75 -2 -70 6 2 13 22 13 45 2 46 0 51 -11 25z"/>
<path d="M572 2994 c-12 -8 -21 -25 -21 -37 1 -17 2 -18 6 -4 2 9 8 17 11 17
4 0 13 9 20 20 15 24 13 25 -16 4z"/>
<path d="M1040 2990 c0 -13 30 -13 50 0 11 7 7 10 -17 10 -18 0 -33 -4 -33
-10z"/>
<path d="M1298 2993 c7 -3 16 -2 19 1 4 3 -2 6 -13 5 -11 0 -14 -3 -6 -6z"/>
<path d="M1326 2984 c-2 -6 -24 -13 -48 -16 -44 -5 -110 -39 -90 -46 6 -2 22
4 34 12 12 9 36 16 53 16 25 0 95 32 95 43 0 9 -40 1 -44 -9z"/>
<path d="M453 2983 c-18 -7 -16 -23 2 -23 8 0 15 7 15 15 0 8 -1 15 -2 14 -2
0 -9 -3 -15 -6z"/>
<path d="M1475 2980 c-16 -4 -39 -11 -50 -17 -22 -13 -82 -73 -72 -73 14 0 82
43 94 60 12 17 63 25 63 10 0 -3 -11 -13 -25 -20 -14 -7 -25 -19 -25 -25 0
-12 -29 -40 -72 -67 -29 -19 -162 -26 -172 -9 -3 5 22 6 57 4 68 -6 95 4 152
52 l30 26 -38 -15 c-21 -9 -51 -25 -67 -36 -15 -11 -34 -20 -42 -20 -7 1 0 8
15 16 40 21 28 28 -16 9 -44 -18 -84 -19 -120 -2 -34 15 -35 30 -1 17 56 -22
142 -4 174 35 11 14 2 12 -36 -9 -29 -16 -62 -26 -75 -24 -20 3 -17 6 18 16
23 7 45 17 48 22 7 11 -68 0 -75 -11 -3 -4 -34 -7 -69 -8 -35 0 -65 -2 -68 -5
-3 -2 18 -15 46 -28 28 -13 51 -28 51 -34 0 -6 10 -19 23 -30 35 -31 48 -37
45 -22 -2 9 11 13 49 14 53 1 115 22 166 57 15 10 27 16 27 13 0 -3 23 2 52
11 52 15 52 15 74 -10 22 -25 23 -77 2 -77 -6 0 -8 6 -5 14 4 11 -6 9 -41 -6
-64 -28 -77 -39 -60 -50 9 -6 6 -7 -9 -3 -12 3 -24 1 -28 -5 -5 -8 2 -10 21
-8 16 2 29 9 29 16 0 13 23 32 38 32 5 0 5 -5 1 -11 -4 -8 0 -7 15 1 12 6 19
16 16 23 -4 7 1 3 10 -8 15 -19 17 -19 26 -2 6 9 15 17 21 17 6 0 3 -11 -6
-25 -9 -14 -12 -25 -7 -25 6 0 15 8 21 18 10 15 11 14 7 -5 -3 -13 -1 -23 4
-23 5 0 9 -4 9 -9 0 -5 -6 -8 -12 -7 -7 0 -15 -3 -18 -9 -3 -5 10 -11 28 -13
31 -3 32 -2 26 25 -19 85 -82 172 -144 201 -21 9 -38 21 -38 27 -1 14 -34 22
-67 15z m68 -47 c4 -3 -1 -12 -11 -20 -12 -9 -13 -12 -2 -8 38 12 73 14 63 4
-6 -6 -29 -12 -52 -14 -24 -1 -58 -14 -81 -29 -54 -35 -59 -33 -16 9 20 19 40
35 45 35 5 0 14 7 21 15 13 16 23 19 33 8z"/>
<path d="M280 2961 c0 -5 6 -11 13 -14 6 -2 -3 -4 -22 -5 -45 -1 -56 -14 -40
-43 12 -22 14 -22 17 -5 2 10 -2 22 -10 27 -8 5 1 7 24 6 25 -2 39 1 43 11 9
23 6 32 -10 32 -8 0 -15 -4 -15 -9z"/>
<path d="M720 2950 c0 -11 5 -20 10 -20 6 0 10 9 10 20 0 11 -4 20 -10 20 -5
0 -10 -9 -10 -20z"/>
<path d="M577 2918 c-14 -82 -18 -153 -8 -138 6 8 11 11 12 5 2 -23 29 93 29
128 0 47 -25 51 -33 5z"/>
<path d="M794 2933 c-17 -10 -40 -25 -51 -33 -22 -16 -69 -100 -56 -100 5 0
16 18 26 40 10 22 22 38 26 35 5 -2 17 6 27 18 11 12 31 30 44 39 33 22 23 23
-16 1z"/>
<path d="M506 2918 c4 -13 8 -47 8 -75 1 -62 20 -66 24 -5 2 25 -3 50 -12 65
-9 13 -13 27 -9 30 3 4 1 7 -6 7 -9 0 -11 -7 -5 -22z"/>
<path d="M676 2923 c-3 -8 -1 -11 4 -8 16 10 12 -11 -15 -71 -14 -32 -24 -59
-22 -61 6 -5 67 119 67 137 0 20 -27 22 -34 3z"/>
<path d="M306 2903 c-6 -14 -5 -15 5 -6 7 7 10 15 7 18 -3 3 -9 -2 -12 -12z"/>
<path d="M466 2901 c-4 -7 -5 -15 -2 -18 9 -9 19 4 14 18 -4 11 -6 11 -12 0z"/>
<path d="M872 2890 c-54 -25 -115 -89 -149 -158 -29 -60 -43 -142 -23 -142 8
0 10 8 7 21 -7 27 20 119 38 125 7 3 15 15 18 26 3 11 10 17 16 14 5 -4 13 -1
17 5 5 8 3 9 -6 4 -8 -5 -11 -3 -8 6 3 8 10 14 16 14 7 0 28 13 47 28 47 38
97 57 125 50 13 -4 21 -2 17 3 -5 8 69 11 98 4 14 -3 -59 -19 -125 -26 -62 -8
-112 -40 -136 -89 -15 -29 -15 -29 3 -10 10 11 29 29 42 40 17 14 13 6 -12
-28 -21 -27 -37 -54 -36 -60 0 -7 6 -3 12 7 55 88 125 127 233 129 53 2 77 -2
88 -13 14 -13 4 -15 -82 -15 -84 -1 -103 -4 -140 -25 -24 -14 -51 -38 -60 -55
-32 -63 -33 -65 -19 -65 7 0 18 15 25 34 7 18 22 42 34 52 l22 19 -15 -25 c-9
-14 -19 -38 -23 -55 -4 -21 3 -14 25 27 38 69 59 78 175 78 l82 0 37 -42 c31
-36 36 -39 30 -18 -8 28 -84 104 -139 138 -50 30 -170 31 -234 2z m-22 -33 c0
-2 -12 -14 -27 -28 l-28 -24 24 28 c23 25 31 32 31 24z"/>
<path d="M131 2886 c-7 -8 -8 -17 -3 -20 6 -3 12 3 15 14 6 24 4 25 -12 6z"/>
<path d="M652 2878 c-10 -22 -11 -22 -12 -3 -1 20 -1 20 -10 0 -11 -26 -12
-112 -1 -119 4 -3 6 6 3 19 -2 14 5 45 17 71 12 25 20 48 18 50 -2 2 -9 -6
-15 -18z"/>
<path d="M201 2874 c0 -11 3 -14 6 -6 3 7 2 16 -1 19 -3 4 -6 -2 -5 -13z"/>
<path d="M491 2875 c1 -11 5 -31 9 -45 8 -24 8 -24 9 5 0 17 -4 37 -9 45 -8
12 -10 11 -9 -5z"/>
<path d="M404 2869 c-4 -7 -3 -14 4 -17 7 -2 12 -16 13 -30 0 -15 5 -36 10
-47 7 -14 8 -5 6 33 -4 56 -19 83 -33 61z"/>
<path d="M1580 2871 c0 -5 13 -11 30 -13 24 -4 27 -2 19 9 -13 15 -49 18 -49
4z"/>
<path d="M309 2851 c-1 -12 -2 -27 -3 -33 -1 -7 5 -12 12 -10 7 1 12 -9 12
-26 0 -16 7 -37 15 -48 14 -18 14 -17 9 16 -16 94 -42 151 -45 101z"/>
<path d="M373 2845 c3 -11 8 -37 12 -57 6 -40 19 -55 31 -37 5 8 3 9 -6 4 -10
-6 -12 -3 -8 13 4 12 2 20 -3 16 -5 -3 -9 7 -9 23 0 15 -5 35 -11 43 -8 12 -9
11 -6 -5z"/>
<path d="M1450 2825 c-36 -19 -74 -34 -86 -35 -25 0 -67 -29 -44 -30 8 0 25
-3 38 -6 16 -5 22 -2 22 9 0 13 5 14 30 5 36 -12 93 -3 110 16 6 8 32 24 57
36 25 11 42 24 39 27 -4 4 -12 1 -18 -5 -7 -7 -19 -12 -27 -12 -13 0 -13 2 -3
9 11 7 10 10 -3 15 -29 11 -48 6 -115 -29z m100 15 c0 -5 -10 -10 -22 -11 -22
-1 -22 -1 2 -8 22 -6 20 -9 -27 -29 -55 -23 -88 -29 -78 -12 3 6 16 10 28 10
18 0 19 2 7 10 -12 8 -11 10 5 8 11 -2 20 1 20 5 0 9 43 36 58 37 4 0 7 -4 7
-10z"/>
<path d="M200 2821 c0 -17 4 -31 9 -31 5 0 11 -6 14 -12 2 -7 2 -4 0 7 -3 11
-5 28 -4 37 0 10 -4 20 -10 23 -5 4 -9 -8 -9 -24z"/>
<path d="M0 2805 c0 -14 5 -25 10 -25 6 0 10 11 10 25 0 14 -4 25 -10 25 -5 0
-10 -11 -10 -25z"/>
<path d="M52 2789 c-9 -37 -8 -42 8 -46 10 -3 24 -18 31 -34 6 -16 14 -28 16
-26 2 3 -5 27 -16 54 -12 32 -16 55 -10 64 12 20 11 29 -5 29 -8 0 -18 -18
-24 -41z"/>
<path d="M467 2813 c-3 -5 1 -14 9 -21 12 -10 14 -10 14 2 0 17 -16 30 -23 19z"/>
<path d="M169 2808 c-5 -18 -6 -38 -1 -34 7 8 12 36 6 36 -2 0 -4 -1 -5 -2z"/>
<path d="M260 2793 c1 -5 11 -28 24 -52 18 -34 24 -40 29 -27 4 9 3 15 -2 12
-4 -3 -14 13 -21 34 -7 22 -17 40 -22 40 -4 0 -8 -3 -8 -7z"/>
<path d="M1065 2790 c-3 -5 -11 -7 -18 -5 -7 3 -23 -4 -37 -15 l-25 -20 28 10
c39 14 97 19 103 9 3 -5 12 -9 21 -9 33 0 113 -62 148 -115 36 -55 55 -74 55
-56 0 5 -7 14 -15 19 -9 4 -19 21 -24 38 -5 16 -13 28 -19 27 -5 -1 -13 9 -16
22 -4 14 -12 25 -20 25 -7 0 -21 9 -31 20 -10 11 -24 20 -32 20 -7 0 -13 7
-13 15 0 8 -3 15 -7 16 -60 6 -94 6 -98 -1z"/>
<path d="M1288 2793 c6 -2 18 -2 25 0 6 3 1 5 -13 5 -14 0 -19 -2 -12 -5z"/>
<path d="M670 2779 c0 -5 5 -7 10 -4 6 3 10 8 10 11 0 2 -4 4 -10 4 -5 0 -10
-5 -10 -11z"/>
<path d="M107 2773 c-3 -5 6 -22 20 -38 23 -28 24 -29 18 -5 -9 28 -32 54 -38
43z"/>
<path d="M241 2775 c1 -19 18 -51 18 -35 0 8 -4 22 -9 30 -5 8 -9 11 -9 5z"/>
<path d="M963 2758 c-26 -29 -46 -68 -39 -75 3 -3 10 6 15 20 5 14 15 28 20
32 11 6 35 45 28 45 -2 0 -13 -10 -24 -22z"/>
<path d="M188 2752 c-4 -12 -2 -20 2 -17 5 3 11 -8 15 -25 4 -16 11 -32 16
-35 14 -9 10 15 -10 60 -16 35 -18 37 -23 17z"/>
<path d="M1256 2762 c12 -11 64 -33 64 -27 0 5 -56 35 -67 35 -4 0 -3 -4 3 -8z"/>
<path d="M1588 2754 c-16 -8 -28 -17 -28 -19 0 -7 60 17 66 26 8 13 -7 10 -38
-7z"/>
<path d="M160 2749 c0 -5 5 -7 10 -4 6 3 10 8 10 11 0 2 -4 4 -10 4 -5 0 -10
-5 -10 -11z"/>
<path d="M1025 2744 c-16 -8 -22 -12 -12 -9 20 5 22 -6 5 -23 -8 -8 -8 -12 -1
-12 15 0 34 25 25 35 -4 4 7 4 23 0 17 -4 38 -7 48 -7 9 0 15 -3 12 -9 -4 -5
4 -10 17 -11 13 0 28 -2 35 -2 24 -2 56 -43 99 -127 25 -48 52 -90 60 -93 20
-8 42 5 82 46 l33 35 -24 10 c-22 10 -23 9 -20 -11 5 -26 -39 -71 -61 -63 -9
4 -34 44 -56 91 -35 73 -47 88 -88 113 -42 26 -115 54 -138 53 -5 -1 -22 -8
-39 -16z"/>
<path d="M1363 2743 c-29 -4 -31 -6 -20 -24 12 -20 37 -26 37 -9 0 6 -5 10
-12 10 -6 0 -8 3 -5 6 4 4 12 2 19 -3 20 -16 80 -24 113 -15 l30 8 -34 12
c-42 15 -54 15 -46 2 4 -6 -5 -10 -19 -10 -29 0 -35 16 -8 23 14 4 13 5 -3 4
-11 0 -34 -2 -52 -4z"/>
<path d="M1621 2733 c-13 -9 -39 -16 -57 -15 -19 1 -34 -2 -34 -7 0 -4 32 -9
71 -10 47 -1 69 2 64 9 -3 6 -11 8 -16 5 -13 -9 -11 9 3 23 18 18 -4 15 -31
-5z m9 -13 c0 -5 -5 -10 -11 -10 -5 0 -7 5 -4 10 3 6 8 10 11 10 2 0 4 -4 4
-10z"/>
<path d="M6 2713 c9 -38 14 -42 14 -10 0 14 -5 29 -10 32 -7 4 -8 -3 -4 -22z"/>
<path d="M410 2721 c0 -6 4 -13 10 -16 6 -3 7 1 4 9 -7 18 -14 21 -14 7z"/>
<path d="M741 2714 c0 -11 3 -14 6 -6 3 7 2 16 -1 19 -3 4 -6 -2 -5 -13z"/>
<path d="M960 2711 c-17 -33 -11 -43 15 -24 28 21 33 35 8 26 -11 -4 -14 -3
-9 5 4 7 5 12 2 12 -3 0 -10 -9 -16 -19z"/>
<path d="M1282 2718 c5 -15 28 -23 28 -10 0 5 -7 13 -16 16 -10 4 -14 1 -12
-6z"/>
<path d="M60 2713 c0 -6 9 -21 21 -34 l20 -24 -17 30 c-24 39 -24 40 -24 28z"/>
<path d="M1750 2709 c0 -5 5 -7 10 -4 6 3 10 8 10 11 0 2 -4 4 -10 4 -5 0 -10
-5 -10 -11z"/>
<path d="M38 2691 c-8 -29 3 -52 37 -79 14 -11 24 -26 22 -33 -2 -8 -2 -11 0
-6 8 13 25 7 20 -7 -4 -10 -1 -13 9 -9 7 3 14 6 14 7 0 1 -20 23 -44 49 -26
27 -46 57 -48 74 -3 28 -3 28 -10 4z"/>
<path d="M330 2690 c6 -11 13 -20 16 -20 2 0 0 9 -6 20 -6 11 -13 20 -16 20
-2 0 0 -9 6 -20z"/>
<path d="M1320 2700 c0 -25 148 -39 235 -21 30 7 8 9 -87 10 -78 1 -128 5
-128 11 0 6 -4 10 -10 10 -5 0 -10 -4 -10 -10z"/>
<path d="M120 2683 c1 -17 30 -65 30 -49 0 4 12 -7 26 -24 15 -17 29 -28 32
-25 3 3 14 -2 24 -12 10 -9 18 -11 18 -6 0 11 -29 27 -42 25 -5 -1 -8 5 -8 14
0 8 -4 13 -8 10 -4 -2 -20 15 -36 40 -31 48 -36 53 -36 27z"/>
<path d="M250 2690 c0 -5 5 -10 11 -10 5 0 7 5 4 10 -3 6 -8 10 -11 10 -2 0
-4 -4 -4 -10z"/>
<path d="M781 2684 c0 -11 3 -14 6 -6 3 7 2 16 -1 19 -3 4 -6 -2 -5 -13z"/>
<path d="M1695 2693 c-51 -6 -115 -25 -115 -34 0 -5 35 -9 78 -10 42 0 87 -2
100 -5 l23 -4 -23 30 c-12 17 -24 29 -27 29 -3 -1 -19 -4 -36 -6z m15 -23 c0
-5 -4 -10 -10 -10 -5 0 -10 5 -10 10 0 6 5 10 10 10 6 0 10 -4 10 -10z m30 6
c0 -3 -4 -8 -10 -11 -5 -3 -10 -1 -10 4 0 6 5 11 10 11 6 0 10 -2 10 -4z"/>
<path d="M1025 2670 c-15 -17 -16 -20 -3 -20 9 0 18 9 21 20 3 11 4 20 3 20
-2 0 -11 -9 -21 -20z"/>
<path d="M12 2640 c0 -19 2 -27 5 -17 2 9 2 25 0 35 -3 9 -5 1 -5 -18z"/>
<path d="M270 2660 c0 -5 5 -10 11 -10 5 0 7 5 4 10 -3 6 -8 10 -11 10 -2 0
-4 -4 -4 -10z"/>
<path d="M735 2659 c-4 -6 -5 -12 -2 -15 2 -3 7 2 10 11 7 17 1 20 -8 4z"/>
<path d="M966 2644 c-10 -14 -15 -28 -13 -31 3 -2 13 7 23 21 9 15 14 29 12
32 -3 2 -13 -7 -22 -22z"/>
<path d="M1350 2649 c40 -32 93 -55 122 -54 15 0 26 -4 25 -10 -1 -5 6 -9 16
-7 9 2 17 -2 17 -8 0 -5 6 -10 14 -10 8 0 18 -5 22 -12 5 -7 2 -8 -7 -3 -8 4
-1 -6 15 -23 16 -17 33 -29 37 -26 4 2 7 -4 6 -13 -1 -22 29 -69 49 -77 9 -3
2 11 -15 31 -17 20 -29 39 -26 41 10 11 45 -12 58 -39 8 -17 18 -29 23 -28 5
1 10 -5 12 -14 2 -12 -1 -15 -12 -11 -9 3 -16 1 -16 -5 0 -12 42 -15 53 -5 9
10 -71 105 -131 155 -89 73 -110 86 -172 99 -33 7 -60 17 -60 22 0 5 -4 7 -9
3 -5 -3 -12 -1 -16 5 -3 5 -12 10 -18 10 -7 0 -1 -9 13 -21z"/>
<path d="M771 2653 c0 -6 -4 -20 -7 -30 -5 -14 -4 -15 5 -7 7 7 11 20 8 30 -3
11 -5 14 -6 7z"/>
<path d="M1085 2650 c-3 -6 1 -7 9 -4 18 7 21 14 7 14 -6 0 -13 -4 -16 -10z"/>
<path d="M110 2641 c0 -6 4 -13 10 -16 6 -3 7 1 4 9 -7 18 -14 21 -14 7z"/>
<path d="M642 2630 c0 -14 2 -19 5 -12 2 6 2 18 0 25 -3 6 -5 1 -5 -13z"/>
<path d="M860 2635 c0 -7 -8 -19 -17 -25 -16 -10 -16 -11 -1 -6 9 3 19 0 22
-7 2 -7 5 3 5 21 1 17 -1 32 -4 32 -3 0 -5 -7 -5 -15z"/>
<path d="M916 2634 c-5 -14 -4 -15 9 -4 17 14 19 20 6 20 -5 0 -12 -7 -15 -16z"/>
<path d="M1475 2640 c54 -14 143 -20 124 -10 -8 5 -48 11 -89 14 -62 4 -68 4
-35 -4z"/>
<path d="M811 2613 c1 -17 3 -21 6 -10 2 9 9 17 14 17 6 0 7 5 4 10 -12 19
-25 10 -24 -17z"/>
<path d="M30 2612 c0 -13 4 -21 9 -17 6 3 14 -3 20 -12 6 -10 10 -13 10 -8 1
6 -8 21 -19 35 l-20 25 0 -23z"/>
<path d="M1630 2620 c8 -5 22 -10 30 -10 13 0 13 1 0 10 -8 5 -22 10 -30 10
-13 0 -13 -1 0 -10z"/>
<path d="M1690 2620 c0 -5 7 -7 15 -4 8 4 15 8 15 10 0 2 -7 4 -15 4 -8 0 -15
-4 -15 -10z"/>
<path d="M1760 2621 c0 -12 29 -23 42 -15 6 4 5 10 -3 15 -18 11 -39 11 -39 0z"/>
<path d="M1540 2616 c0 -16 97 -49 105 -36 3 5 -13 14 -35 20 -23 6 -48 14
-56 17 -8 3 -14 3 -14 -1z"/>
<path d="M1110 2606 c0 -2 11 -6 25 -8 13 -3 22 -1 19 3 -5 9 -44 13 -44 5z"/>
<path d="M1360 2590 c0 -11 7 -20 15 -20 8 0 15 -5 15 -12 0 -6 3 -8 6 -5 4 4
2 13 -4 20 -7 8 -9 16 -6 19 2 3 -2 8 -11 11 -10 5 -15 0 -15 -13z"/>
<path d="M13 2560 c0 -25 2 -35 4 -22 2 12 2 32 0 45 -2 12 -4 2 -4 -23z"/>
<path d="M140 2596 c0 -2 8 -10 18 -17 15 -13 16 -12 3 4 -13 16 -21 21 -21
13z"/>
<path d="M650 2595 c-1 -5 -2 -14 -1 -19 1 -5 -5 -6 -14 -2 -9 3 -13 2 -10 -4
3 -6 13 -10 20 -10 8 0 17 -11 21 -24 3 -14 12 -27 19 -30 10 -3 12 0 8 11 -5
12 -1 14 18 8 23 -7 23 -7 4 8 -13 10 -22 12 -26 5 -8 -12 -18 2 -29 40 -5 15
-9 23 -10 17z"/>
<path d="M740 2592 c0 -5 7 -9 15 -9 8 0 12 4 9 9 -3 4 -9 8 -15 8 -5 0 -9 -4
-9 -8z"/>
<path d="M1670 2591 c0 -10 74 -35 88 -30 6 2 -11 11 -39 21 -27 9 -49 13 -49
9z"/>
<path d="M1730 2596 c0 -2 9 -6 20 -9 11 -3 18 -1 14 4 -5 9 -34 13 -34 5z"/>
<path d="M1805 2580 c3 -5 8 -10 11 -10 2 0 4 5 4 10 0 6 -5 10 -11 10 -5 0
-7 -4 -4 -10z"/>
<path d="M726 2566 c3 -9 13 -16 22 -16 8 0 13 1 11 3 -2 1 -12 9 -22 16 -15
12 -17 12 -11 -3z"/>
<path d="M545 2550 c10 -11 20 -20 23 -20 3 0 -3 9 -13 20 -10 11 -20 20 -23
20 -3 0 3 -9 13 -20z"/>
<path d="M607 2549 c4 -13 8 -18 11 -10 2 7 -1 18 -6 23 -8 8 -9 4 -5 -13z"/>
<path d="M1340 2563 c0 -6 8 -17 18 -24 16 -13 16 -13 2 6 -8 11 -16 22 -17
24 -2 2 -3 0 -3 -6z"/>
<path d="M1656 2518 c58 -60 108 -125 117 -151 4 -11 12 -15 19 -11 9 6 9 9 0
12 -7 2 -12 10 -12 18 0 8 -4 14 -10 14 -5 0 -10 7 -10 15 0 8 -8 23 -17 33
-10 10 -28 33 -41 50 -19 27 -19 30 -5 25 10 -3 15 -3 12 1 -4 4 -17 9 -29 11
-13 2 -30 11 -40 20 -9 8 -21 15 -25 15 -5 0 13 -24 41 -52z"/>
<path d="M1658 2558 c5 -5 16 -8 23 -6 8 3 3 7 -10 11 -17 4 -21 3 -13 -5z"/>
<path d="M150 2551 c0 -5 8 -11 18 -14 9 -2 24 -8 33 -11 10 -5 16 -2 16 8 0
8 -4 13 -8 10 -4 -2 -19 0 -33 6 -14 5 -26 6 -26 1z"/>
<path d="M480 2551 c0 -6 4 -12 8 -15 5 -3 9 1 9 9 0 8 -4 15 -9 15 -4 0 -8
-4 -8 -9z"/>
<path d="M1490 2556 c0 -3 9 -10 20 -16 11 -6 20 -8 20 -6 0 3 -9 10 -20 16
-11 6 -20 8 -20 6z"/>
<path d="M510 2546 c0 -2 7 -7 16 -10 8 -3 12 -2 9 4 -6 10 -25 14 -25 6z"/>
<path d="M1455 2540 c-3 -5 -1 -10 4 -10 6 0 11 5 11 10 0 6 -2 10 -4 10 -3 0
-8 -4 -11 -10z"/>
<path d="M33 2523 c-1 -15 7 -18 40 -18 23 0 47 -3 52 -7 6 -3 32 -9 59 -13
35 -6 47 -5 42 4 -4 6 -18 11 -32 11 -14 0 -41 7 -61 15 -40 17 -66 20 -43 5
13 -8 13 -10 -1 -10 -9 0 -22 7 -29 15 -16 20 -25 19 -27 -2z"/>
<path d="M243 2530 c22 -14 64 -23 51 -10 -5 5 -22 11 -39 15 -25 5 -27 4 -12
-5z"/>
<path d="M330 2536 c0 -2 7 -7 16 -10 8 -3 12 -2 9 4 -6 10 -25 14 -25 6z"/>
<path d="M1720 2536 c0 -8 51 -13 56 -5 3 5 -9 9 -25 9 -17 0 -31 -2 -31 -4z"/>
<path d="M1540 2511 c0 -6 5 -11 11 -11 5 0 7 -4 4 -10 -3 -5 -1 -10 5 -10 6
0 22 -12 36 -27 l25 -28 -19 33 c-21 36 -62 71 -62 53z"/>
<path d="M12 2455 c-1 -27 2 -45 6 -40 4 6 29 11 57 13 65 5 96 21 38 22 -23
0 -43 -5 -45 -11 -2 -7 -13 -9 -25 -5 -15 5 -23 17 -26 39 -3 22 -4 17 -5 -18z"/>
<path d="M1480 2490 c-9 -6 -10 -10 -3 -10 6 0 15 5 18 10 8 12 4 12 -15 0z"/>
<path d="M320 2480 c0 -7 -15 -9 -37 -5 l-38 5 34 -13 c32 -12 33 -14 17 -30
-10 -9 -14 -17 -10 -17 3 0 1 -6 -5 -14 -6 -7 -9 -20 -6 -28 3 -8 -1 -21 -10
-28 -12 -10 -13 -15 -4 -20 7 -5 8 -13 3 -21 -5 -8 -7 -22 -5 -33 1 -10 -2
-15 -7 -12 -6 4 -14 1 -18 -5 -4 -8 -3 -9 4 -5 13 8 17 -26 5 -38 -12 -12 -10
-44 2 -39 11 4 13 -41 5 -82 -4 -20 0 -35 10 -35 6 0 10 33 9 83 -2 171 35
326 79 327 6 0 12 5 12 10 0 6 -9 10 -20 10 -11 0 -20 -5 -20 -10z"/>
<path d="M400 2479 c-34 -6 -33 -6 13 -8 46 -1 59 3 35 11 -7 2 -29 1 -48 -3z"/>
<path d="M475 2480 c-3 -6 1 -7 9 -4 18 7 21 14 7 14 -6 0 -13 -4 -16 -10z"/>
<path d="M1510 2481 c0 -9 30 -24 36 -18 2 1 -6 8 -16 15 -11 7 -20 8 -20 3z"/>
<path d="M38 2473 c7 -3 16 -2 19 1 4 3 -2 6 -13 5 -11 0 -14 -3 -6 -6z"/>
<path d="M83 2473 c9 -2 25 -2 35 0 9 3 1 5 -18 5 -19 0 -27 -2 -17 -5z"/>
<path d="M1420 2470 c0 -6 4 -9 9 -5 5 3 12 1 16 -5 3 -5 14 -10 24 -10 10 0
29 -8 42 -18 13 -10 33 -22 44 -26 18 -7 18 -5 -3 14 -35 33 -132 70 -132 50z"/>
<path d="M1300 2460 c8 -5 20 -10 25 -10 6 0 3 5 -5 10 -8 5 -19 10 -25 10 -5
0 -3 -5 5 -10z"/>
<path d="M1837 2457 c-3 -8 1 -14 8 -14 7 0 11 6 8 14 -3 7 -6 13 -8 13 -2 0
-5 -6 -8 -13z"/>
<path d="M168 2453 c6 -2 18 -2 25 0 6 3 1 5 -13 5 -14 0 -19 -2 -12 -5z"/>
<path d="M1460 2397 c52 -24 96 -43 98 -42 7 5 -11 34 -24 39 -10 4 -12 2 -8
-5 4 -7 1 -10 -7 -7 -8 3 -14 10 -14 16 0 5 -4 14 -9 19 -5 5 -6 3 -2 -4 9
-17 6 -16 -54 7 -90 36 -78 21 20 -23z"/>
<path d="M1570 2426 c0 -3 9 -10 20 -16 11 -6 20 -8 20 -6 0 3 -9 10 -20 16
-11 6 -20 8 -20 6z"/>
<path d="M98 2402 c-26 -5 -22 -17 7 -18 14 -1 25 2 25 8 0 5 4 7 8 4 4 -2 14
0 22 5 11 7 7 9 -15 7 -16 -1 -38 -4 -47 -6z"/>
<path d="M1626 2393 c-6 -14 -5 -15 5 -6 7 7 10 15 7 18 -3 3 -9 -2 -12 -12z"/>
<path d="M10 2356 c0 -20 2 -36 4 -36 8 0 12 61 4 66 -4 3 -8 -11 -8 -30z"/>
<path d="M1867 2360 c-3 -14 -2 -27 5 -31 6 -4 8 -19 6 -33 -4 -22 -3 -24 9
-14 8 6 11 18 7 27 -3 9 -10 30 -13 46 -7 30 -7 30 -14 5z"/>
<path d="M124 2355 c-12 -8 -36 -17 -55 -20 -67 -12 -37 -16 48 -6 7 0 17 10
23 21 13 24 11 25 -16 5z"/>
<path d="M1420 2360 c0 -9 88 -35 95 -28 3 2 -18 11 -45 20 -28 9 -50 13 -50
8z"/>
<path d="M1711 2355 c-31 -8 -40 -13 -28 -18 19 -7 77 11 77 24 0 5 -1 8 -2 8
-2 -1 -23 -7 -47 -14z"/>
<path d="M1810 2346 c0 -2 7 -7 16 -10 8 -3 12 -2 9 4 -6 10 -25 14 -25 6z"/>
<path d="M148 2323 c-12 -11 -35 -16 -77 -17 -76 -1 -80 -12 -7 -15 45 -2 58
2 82 23 16 14 27 26 24 26 -3 0 -13 -7 -22 -17z"/>
<path d="M1440 2318 c86 -44 158 -63 105 -28 -35 23 -26 26 15 5 26 -14 29
-14 24 0 -4 8 -14 16 -23 16 -9 1 -31 3 -50 5 -32 2 -58 8 -98 19 -10 3 2 -4
27 -17z"/>
<path d="M146 2295 c-10 -7 -16 -18 -15 -23 2 -6 12 1 22 14 21 27 19 29 -7 9z"/>
<path d="M195 2299 c-4 -6 -5 -12 -2 -15 2 -3 7 2 10 11 7 17 1 20 -8 4z"/>
<path d="M60 2269 c0 -5 5 -7 10 -4 6 3 10 8 10 11 0 2 -4 4 -10 4 -5 0 -10
-5 -10 -11z"/>
<path d="M159 2259 c-7 -12 -20 -28 -27 -37 -13 -16 -13 -16 -8 1 4 11 2 16
-5 12 -6 -4 -8 -14 -4 -23 3 -8 0 -19 -6 -23 -6 -3 -9 -13 -7 -20 3 -9 10 -3
21 16 9 17 16 26 17 20 0 -5 9 8 20 30 22 43 22 55 -1 24z"/>
<path d="M1857 2237 c-17 -15 -30 -37 -34 -60 -3 -20 -9 -37 -14 -37 -5 0 -6
-6 -3 -13 2 -7 -2 -26 -10 -41 -8 -16 -12 -35 -9 -42 3 -8 0 -14 -6 -14 -6 0
-11 -9 -11 -19 0 -11 -5 -23 -10 -26 -7 -4 -7 -12 -2 -18 8 -11 8 -36 0 -145
-2 -23 0 -42 5 -42 4 0 7 -8 7 -17 0 -16 2 -16 10 -3 8 12 10 9 7 -12 -1 -15
-6 -30 -10 -34 -4 -4 -7 -14 -7 -23 0 -13 2 -14 9 -2 11 17 41 7 41 -14 0 -18
17 -20 22 -3 2 6 -6 21 -18 33 -27 28 -36 93 -31 230 3 82 10 116 37 190 18
50 38 93 44 97 28 19 69 7 101 -27 51 -53 57 -104 34 -244 -28 -161 -81 -271
-131 -271 -16 0 -18 -5 -13 -32 14 -86 25 -178 25 -228 0 -46 -6 -66 -38 -120
-21 -36 -47 -76 -57 -88 -38 -46 -191 -207 -322 -339 -73 -73 -144 -152 -159
-174 -28 -45 -39 -46 -119 -9 -22 10 -60 25 -84 34 -68 24 -151 78 -157 101
-3 12 -13 21 -24 21 -32 0 7 -49 73 -90 32 -20 266 -126 278 -126 5 0 24 20
43 45 19 25 127 142 241 259 228 236 274 291 318 386 34 72 39 128 19 238 -11
63 -3 112 17 112 9 0 23 -47 26 -88 1 -12 5 -25 9 -29 4 -4 4 29 0 72 -6 70
-4 84 14 115 20 35 43 110 63 212 6 29 13 64 15 78 3 14 0 52 -7 85 -24 111
-118 175 -182 122z"/>
<path d="M180 2205 c-13 -14 -21 -25 -18 -25 10 0 51 40 46 45 -2 3 -15 -6
-28 -20z"/>
<path d="M1596 2199 c2 -4 13 -7 24 -6 23 2 17 10 -10 12 -10 1 -17 -2 -14 -6z"/>
<path d="M1899 2180 c-22 -19 -23 -21 -4 -19 46 3 57 -2 71 -36 7 -19 14 -51
13 -72 l-1 -38 -19 40 c-18 35 -19 36 -14 10 27 -131 23 -176 -19 -212 -22
-19 -23 -23 -10 -34 13 -10 17 -10 25 2 26 41 59 181 59 251 0 46 -25 104 -49
118 -26 13 -25 13 -52 -10z"/>
<path d="M137 2173 c-2 -5 0 -21 4 -38 7 -29 7 -29 8 8 1 35 -3 46 -12 30z"/>
<path d="M1213 2155 c55 -19 53 -21 -21 -19 -58 2 -142 -13 -192 -33 -8 -3
-18 -6 -21 -5 -12 2 -20 -51 -10 -61 8 -8 11 -5 11 10 0 23 20 43 20 21 1 -9
5 -7 14 5 7 9 17 17 21 17 4 0 2 -7 -5 -15 -24 -29 -1 -27 112 9 70 22 125 33
146 31 46 -7 79 -13 105 -20 19 -6 19 -4 -7 19 -34 31 -113 56 -170 56 l-41
-1 38 -14z m-113 -54 c0 -6 -4 -13 -10 -16 -5 -3 -10 1 -10 9 0 9 5 16 10 16
6 0 10 -4 10 -9z"/>
<path d="M1917 2149 c7 -7 15 -10 18 -7 3 3 -2 9 -12 12 -14 6 -15 5 -6 -5z"/>
<path d="M1629 2132 c14 -26 41 -48 41 -33 0 6 -7 14 -15 17 -8 4 -15 12 -15
20 0 8 -5 14 -10 14 -7 0 -7 -6 -1 -18z"/>
<path d="M1860 2129 c-7 -11 -10 -23 -7 -25 2 -2 9 7 15 21 14 30 7 33 -8 4z"/>
<path d="M1643 2070 c6 -17 19 -33 29 -36 10 -3 21 -16 24 -30 3 -13 10 -24
14 -24 5 0 3 14 -3 30 -6 17 -15 30 -19 30 -4 0 -8 6 -8 13 0 6 -11 20 -24 29
l-24 17 11 -29z"/>
<path d="M1415 2080 c-3 -5 -2 -10 4 -10 5 0 13 5 16 10 3 6 2 10 -4 10 -5 0
-13 -4 -16 -10z"/>
<path d="M1837 2083 c-4 -3 -7 -11 -7 -17 0 -6 5 -5 12 2 6 6 9 14 7 17 -3 3
-9 2 -12 -2z"/>
<path d="M940 2049 c11 -38 26 -55 17 -19 -4 14 -7 31 -7 38 0 6 -4 12 -9 12
-6 0 -6 -12 -1 -31z"/>
<path d="M170 2049 c0 -14 7 -34 15 -45 14 -18 14 -18 14 6 0 14 -6 34 -14 44
-14 19 -15 19 -15 -5z"/>
<path d="M269 2038 c-11 -20 -9 -87 5 -173 3 -16 3 -22 0 -11 -3 10 -17 39
-30 64 -27 50 -28 56 -14 47 6 -3 10 1 10 9 0 24 -17 28 -23 5 -3 -12 9 -55
29 -102 19 -45 34 -85 34 -90 0 -5 14 -40 31 -79 17 -38 39 -104 50 -146 11
-42 27 -88 34 -102 8 -14 21 -47 30 -74 9 -27 24 -61 34 -75 10 -14 27 -46 38
-71 53 -121 202 -290 325 -370 l54 -35 17 -85 c9 -47 23 -116 32 -154 30 -138
26 -150 -69 -222 -36 -27 -68 -55 -70 -61 -3 -7 24 10 59 37 36 28 65 47 65
43 1 -5 9 2 19 14 10 12 21 19 25 16 15 -15 3 -50 -33 -98 -23 -30 -47 -78
-56 -111 -46 -163 -54 -214 -36 -214 5 0 16 31 25 68 25 110 62 210 93 249 15
19 32 41 37 48 6 7 1 48 -12 106 -12 52 -33 157 -48 234 l-26 140 -55 34 c-70
43 -180 146 -238 223 -25 33 -63 97 -85 141 -21 45 -46 93 -53 107 -62 109
-176 521 -178 640 -1 39 -3 70 -5 70 -2 0 -9 -10 -15 -22z"/>
<path d="M1465 2040 c-3 -5 -2 -10 4 -10 5 0 13 5 16 10 3 6 2 10 -4 10 -5 0
-13 -4 -16 -10z"/>
<path d="M1656 1990 c4 -25 13 -62 21 -84 7 -21 13 -65 13 -98 0 -50 20 -118
35 -118 12 0 35 35 35 53 -1 20 -1 21 -11 4 -10 -18 -11 -18 -25 0 -7 10 -14
41 -14 68 0 28 -9 84 -20 125 -24 87 -45 119 -34 50z"/>
<path d="M1810 2011 c0 -19 52 -71 71 -71 5 0 9 -10 9 -23 0 -25 -53 -83 -67
-74 -4 3 -9 -6 -9 -19 -1 -13 -1 -24 1 -24 1 0 17 15 37 33 19 17 42 37 53 42
13 8 19 25 21 63 2 33 -1 52 -7 52 -6 0 -9 -9 -6 -20 5 -21 -16 -29 -28 -10
-4 6 -10 8 -15 5 -5 -3 -7 3 -5 14 4 20 -7 33 -37 44 -13 5 -18 1 -18 -12z"/>
<path d="M1720 2011 c0 -6 4 -13 10 -16 6 -3 7 1 4 9 -7 18 -14 21 -14 7z"/>
<path d="M1110 1988 c-27 -14 -52 -37 -64 -58 l-20 -35 41 42 c62 62 160 81
253 48 54 -19 63 -18 25 2 -18 10 -62 18 -110 20 -69 4 -86 1 -125 -19z"/>
<path d="M522 1987 c-12 -7 -20 -16 -16 -19 3 -4 -2 -5 -13 -2 -12 3 -31 -9
-57 -36 -42 -43 -42 -46 1 -29 15 6 37 15 48 19 24 10 180 32 212 31 32 -1 38
28 7 39 -36 14 -155 12 -182 -3z m123 -15 c-3 -3 -11 0 -18 7 -9 10 -8 11 6 5
10 -3 15 -9 12 -12z m-35 -3 c12 -8 8 -10 -17 -6 -18 2 -35 -1 -37 -7 -2 -6
-5 -3 -5 7 -1 19 34 23 59 6z m-130 -29 c0 -5 -5 -10 -11 -10 -5 0 -7 5 -4 10
3 6 8 10 11 10 2 0 4 -4 4 -10z"/>
<path d="M418 1968 c-27 -25 -48 -59 -48 -80 0 -15 50 36 68 71 17 33 10 36
-20 9z"/>
<path d="M1420 1973 c-29 -13 -45 -13 -96 -4 -75 14 -144 14 -178 1 -29 -11
-111 -89 -102 -97 3 -3 13 0 22 7 8 8 34 15 56 17 22 3 50 10 62 18 28 17 67
25 152 29 67 4 124 21 124 38 0 4 -1 8 -2 7 -2 0 -19 -8 -38 -16z m-214 -30
c-15 -8 -32 -11 -38 -7 -17 11 19 33 44 26 20 -5 19 -6 -6 -19z m-56 -3 c0 -5
0 -13 0 -17 0 -4 -12 -9 -27 -11 -27 -3 -27 -3 -9 17 20 23 36 27 36 11z"/>
<path d="M1710 1961 c0 -5 4 -13 10 -16 5 -3 7 -19 4 -34 -4 -16 -1 -32 5 -35
17 -11 14 63 -4 80 -8 9 -15 11 -15 5z"/>
<path d="M1826 1915 c4 -8 11 -15 16 -15 6 0 5 6 -2 15 -7 8 -14 15 -16 15 -2
0 -1 -7 2 -15z"/>
<path d="M1304 1896 c-35 -25 -127 -46 -176 -41 -26 2 -50 0 -53 -5 -4 -6 26
-10 77 -10 85 0 168 25 168 50 0 6 5 8 12 4 7 -4 8 -3 4 4 -9 15 -7 15 -32 -2z"/>
<path d="M385 1872 c-6 -4 -12 -23 -12 -42 -1 -19 1 -28 4 -20 3 8 13 23 21
33 15 16 14 17 -4 12 -19 -7 -19 -6 0 9 19 16 11 23 -9 8z"/>
<path d="M980 1871 c0 -6 5 -13 10 -16 6 -3 10 1 10 9 0 9 -4 16 -10 16 -5 0
-10 -4 -10 -9z"/>
<path d="M600 1861 c-60 -19 -130 -69 -130 -94 0 -5 13 5 29 22 16 17 45 38
65 46 40 17 122 20 160 5 40 -15 31 -2 -10 15 -39 16 -74 18 -114 6z"/>
<path d="M779 1844 c12 -15 21 -33 21 -41 0 -8 5 -11 10 -8 6 3 10 -4 11 -17
0 -13 3 -17 6 -10 6 14 -24 83 -41 94 -23 16 -27 7 -7 -18z"/>
<path d="M1729 1848 c-5 -13 -3 -90 2 -94 4 -2 7 19 7 46 0 41 -4 60 -9 48z"/>
<path d="M574 1822 c-36 -17 -114 -97 -114 -117 0 -4 15 4 33 17 17 14 49 28
69 32 57 10 108 35 108 51 0 17 27 20 32 4 2 -6 17 -9 33 -7 l30 4 -30 13
c-54 22 -116 23 -161 3z m66 -18 c0 -10 -6 -14 -15 -10 -8 3 -15 1 -15 -4 0
-6 -7 -10 -15 -10 -20 0 -19 17 3 29 25 15 42 13 42 -5z m-70 -29 c0 -8 -7
-15 -15 -15 -16 0 -20 12 -8 23 11 12 23 8 23 -8z"/>
<path d="M973 1795 c0 -8 4 -15 9 -15 4 0 8 4 8 9 0 6 -4 12 -8 15 -5 3 -9 -1
-9 -9z"/>
<path d="M1470 1800 c0 -5 5 -10 11 -10 5 0 7 5 4 10 -3 6 -8 10 -11 10 -2 0
-4 -4 -4 -10z"/>
<path d="M1855 1789 c-10 -15 3 -25 16 -12 7 7 7 13 1 17 -6 3 -14 1 -17 -5z"/>
<path d="M710 1751 c-54 -40 -123 -71 -149 -66 -22 5 -23 4 -6 -4 12 -6 15
-10 6 -10 -8 -1 -12 -3 -9 -6 10 -11 103 27 148 60 25 18 54 35 65 38 16 4 16
5 -5 6 -14 0 -36 -8 -50 -18z"/>
<path d="M1280 1760 c0 -5 5 -10 10 -10 6 0 10 5 10 10 0 6 -4 10 -10 10 -5 0
-10 -4 -10 -10z"/>
<path d="M1086 1641 c-3 -5 4 -11 17 -15 23 -5 57 -53 57 -80 0 -24 -37 -56
-64 -56 -15 0 -34 -12 -50 -32 -14 -18 -32 -41 -41 -50 -14 -16 -13 -18 5 -18
11 0 20 6 20 14 0 7 10 26 21 40 16 20 28 26 43 22 30 -8 76 39 76 79 0 17 6
37 13 44 8 8 8 11 1 9 -7 -2 -23 9 -37 25 -26 27 -51 35 -61 18z"/>
<path d="M1831 1634 c0 -11 3 -14 6 -6 3 7 2 16 -1 19 -3 4 -6 -2 -5 -13z"/>
<path d="M775 1630 c3 -5 8 -10 11 -10 2 0 4 5 4 10 0 6 -5 10 -11 10 -5 0 -7
-4 -4 -10z"/>
<path d="M801 1527 c-9 -29 -9 -50 -2 -67 9 -24 10 -23 10 12 1 20 5 48 11 62
5 14 5 28 1 30 -5 3 -14 -13 -20 -37z"/>
<path d="M1201 1567 c2 -1 13 -9 24 -17 19 -14 19 -14 6 3 -7 9 -18 17 -24 17
-6 0 -8 -1 -6 -3z"/>
<path d="M1930 1526 c0 -31 6 -34 13 -6 3 11 1 23 -4 26 -5 3 -9 -6 -9 -20z"/>
<path d="M1285 1510 c10 -11 20 -20 23 -20 3 0 -3 9 -13 20 -10 11 -20 20 -23
20 -3 0 3 -9 13 -20z"/>
<path d="M1320 1481 c0 -5 9 -13 21 -16 11 -4 27 -22 36 -40 14 -29 14 -36 1
-62 -12 -25 -12 -31 -1 -42 8 -7 12 -20 9 -28 -3 -8 -1 -11 4 -8 13 8 13 42 0
47 -6 2 -5 13 3 28 18 33 6 73 -30 104 -30 27 -43 32 -43 17z"/>
<path d="M1525 1480 c3 -5 8 -10 11 -10 2 0 4 5 4 10 0 6 -5 10 -11 10 -5 0
-7 -4 -4 -10z"/>
<path d="M1710 1466 c0 -2 7 -9 15 -16 13 -11 14 -10 9 4 -5 14 -24 23 -24 12z"/>
<path d="M1202 1430 c7 -11 16 -20 20 -20 5 0 3 9 -4 20 -7 11 -16 20 -20 20
-5 0 -3 -9 4 -20z"/>
<path d="M1330 1441 c0 -5 7 -12 16 -15 14 -5 15 -4 4 9 -14 17 -20 19 -20 6z"/>
<path d="M1085 1420 c3 -5 8 -10 11 -10 2 0 4 5 4 10 0 6 -5 10 -11 10 -5 0
-7 -4 -4 -10z"/>
<path d="M1555 1420 c3 -5 8 -10 11 -10 2 0 4 5 4 10 0 6 -5 10 -11 10 -5 0
-7 -4 -4 -10z"/>
<path d="M863 1409 c15 -6 27 -15 27 -20 0 -6 5 -7 12 -3 8 5 9 2 4 -11 -5
-14 -4 -16 8 -6 11 9 15 8 20 -4 3 -8 11 -15 18 -14 10 0 10 2 1 6 -7 2 -13
12 -13 21 0 13 2 14 9 4 6 -10 10 -10 20 1 12 15 1 19 -96 32 -36 5 -36 4 -10
-6z"/>
<path d="M1140 1413 c0 -5 8 -17 17 -28 14 -18 15 -18 9 -2 -3 10 -6 23 -6 28
0 5 -4 9 -10 9 -5 0 -10 -3 -10 -7z"/>
<path d="M1240 1410 c0 -5 5 -10 11 -10 5 0 7 5 4 10 -3 6 -8 10 -11 10 -2 0
-4 -4 -4 -10z"/>
<path d="M1930 1407 c0 -7 22 -48 50 -92 27 -44 50 -85 50 -92 0 -16 -79 -197
-141 -323 -92 -188 -174 -429 -244 -717 -20 -81 -39 -156 -41 -165 -3 -11 0
-18 8 -18 10 0 20 27 32 77 10 43 26 107 37 143 10 36 20 74 21 85 2 11 7 26
11 33 5 6 6 12 2 12 -3 0 -1 9 5 20 6 11 20 55 30 98 11 42 26 91 34 107 8 17
24 62 36 100 12 39 30 82 41 97 10 15 19 32 19 38 0 7 22 57 49 113 61 130
111 251 111 272 0 16 2 16 28 0 15 -10 37 -27 48 -39 28 -29 123 -90 130 -83
3 2 -19 22 -48 43 -75 54 -150 123 -173 161 -11 18 -35 57 -53 88 -33 56 -42
65 -42 42z"/>
<path d="M1036 1381 c-4 -5 -2 -12 3 -16 6 -3 8 -12 4 -20 -3 -11 -1 -13 10
-9 9 3 13 13 10 25 -6 23 -19 33 -27 20z"/>
<path d="M1098 1383 c7 -3 16 -2 19 1 4 3 -2 6 -13 5 -11 0 -14 -3 -6 -6z"/>
<path d="M1297 1370 c-21 -11 -72 -25 -114 -30 -42 -6 -91 -19 -110 -30 -19
-11 -49 -20 -66 -20 -18 0 -39 -5 -47 -11 -28 -20 72 -3 120 20 25 12 63 24
85 27 39 5 38 4 -30 -32 -70 -37 -195 -63 -301 -64 -37 0 -41 -2 -39 -22 4
-33 4 -33 18 -16 8 10 53 21 132 32 118 17 203 48 357 128 21 10 43 16 49 12
7 -4 10 -1 7 6 -7 22 -21 21 -61 0z"/>
<path d="M1550 1350 c0 -5 5 -10 11 -10 5 0 7 5 4 10 -3 6 -8 10 -11 10 -2 0
-4 -4 -4 -10z"/>
<path d="M990 1340 c0 -5 5 -10 10 -10 6 0 10 5 10 10 0 6 -4 10 -10 10 -5 0
-10 -4 -10 -10z"/>
<path d="M1021 1334 c0 -11 3 -14 6 -6 3 7 2 16 -1 19 -3 4 -6 -2 -5 -13z"/>
<path d="M801 1323 c-1 -6 -4 -20 -7 -30 -5 -17 -5 -17 6 0 6 10 9 23 6 30 -3
9 -5 9 -5 0z"/>
<path d="M895 1320 c3 -5 11 -10 16 -10 6 0 7 5 4 10 -3 6 -11 10 -16 10 -6 0
-7 -4 -4 -10z"/>
<path d="M757 1303 c-21 -24 -33 -73 -17 -73 6 0 8 5 5 11 -4 6 2 13 14 16 12
3 21 9 21 14 0 5 -7 6 -15 3 -21 -8 -19 6 2 22 10 7 15 15 12 18 -3 3 -13 -2
-22 -11z"/>
<path d="M1545 1310 c3 -5 8 -10 11 -10 2 0 4 5 4 10 0 6 -5 10 -11 10 -5 0
-7 -4 -4 -10z"/>
<path d="M1710 1305 c0 -8 4 -15 10 -15 5 0 7 7 4 15 -4 8 -8 15 -10 15 -2 0
-4 -7 -4 -15z"/>
<path d="M830 1289 c0 -5 5 -7 10 -4 6 3 10 8 10 11 0 2 -4 4 -10 4 -5 0 -10
-5 -10 -11z"/>
<path d="M1197 1259 c-53 -35 -66 -50 -39 -42 18 4 103 72 91 73 -3 0 -27 -14
-52 -31z"/>
<path d="M1407 1263 c-4 -3 -7 -11 -7 -17 0 -6 5 -5 12 2 6 6 9 14 7 17 -3 3
-9 2 -12 -2z"/>
<path d="M1460 1251 c0 -6 5 -13 10 -16 6 -3 10 1 10 9 0 9 -4 16 -10 16 -5 0
-10 -4 -10 -9z"/>
<path d="M1426 1219 c3 -6 0 -16 -7 -21 -12 -8 -11 -9 1 -5 18 4 27 37 10 37
-6 0 -8 -5 -4 -11z"/>
<path d="M740 1210 c0 -5 5 -10 11 -10 5 0 7 5 4 10 -3 6 -8 10 -11 10 -2 0
-4 -4 -4 -10z"/>
<path d="M1380 1200 c0 -5 5 -10 10 -10 6 0 10 5 10 10 0 6 -4 10 -10 10 -5 0
-10 -4 -10 -10z"/>
<path d="M1216 1185 c-10 -8 -24 -16 -30 -18 -6 -2 -8 -8 -4 -12 4 -4 19 5 35
19 30 28 30 34 -1 11z"/>
<path d="M900 1180 c0 -18 104 -28 114 -11 3 4 -7 8 -22 7 -15 -1 -42 2 -59 5
-18 4 -33 3 -33 -1z"/>
<path d="M780 1155 c0 -8 2 -15 4 -15 2 0 6 7 10 15 3 8 1 15 -4 15 -6 0 -10
-7 -10 -15z"/>
<path d="M1093 1145 c-16 -17 -17 -35 -3 -35 6 0 10 6 10 14 0 17 27 29 35 16
3 -5 13 -6 21 -3 13 5 13 7 2 14 -20 13 -51 10 -65 -6z"/>
<path d="M1052 1141 c-11 -7 -11 -9 2 -14 10 -4 16 -1 16 8 0 17 -1 17 -18 6z"/>
<path d="M1335 1140 c3 -5 8 -10 11 -10 2 0 4 5 4 10 0 6 -5 10 -11 10 -5 0
-7 -4 -4 -10z"/>
<path d="M1416 1135 c-3 -8 -1 -15 4 -15 6 0 10 7 10 15 0 8 -2 15 -4 15 -2 0
-6 -7 -10 -15z"/>
<path d="M1380 1130 c0 -5 5 -10 11 -10 5 0 7 5 4 10 -3 6 -8 10 -11 10 -2 0
-4 -4 -4 -10z"/>
<path d="M1020 1110 c0 -5 7 -10 16 -10 8 0 12 5 9 10 -3 6 -10 10 -16 10 -5
0 -9 -4 -9 -10z"/>
<path d="M1460 1105 c7 -9 15 -13 17 -11 7 7 -7 26 -19 26 -6 0 -6 -6 2 -15z"/>
<path d="M990 1099 c0 -5 5 -7 10 -4 6 3 10 8 10 11 0 2 -4 4 -10 4 -5 0 -10
-5 -10 -11z"/>
<path d="M1130 1091 c0 -25 6 -27 13 -6 4 8 2 17 -3 20 -6 4 -10 -3 -10 -14z"/>
<path d="M1087 1084 c-4 -4 -7 -14 -7 -23 0 -11 3 -12 11 -4 6 6 10 16 7 23
-2 6 -7 8 -11 4z"/>
<path d="M1335 1080 c3 -5 8 -10 11 -10 2 0 4 5 4 10 0 6 -5 10 -11 10 -5 0
-7 -4 -4 -10z"/>
<path d="M820 1069 c0 -5 5 -7 10 -4 6 3 10 8 10 11 0 2 -4 4 -10 4 -5 0 -10
-5 -10 -11z"/>
<path d="M2707 1048 c-7 -4 -3 -7 8 -6 11 0 81 -2 155 -7 94 -5 132 -4 125 3
-11 12 -271 21 -288 10z"/>
<path d="M1445 1040 c3 -5 8 -10 11 -10 2 0 4 5 4 10 0 6 -5 10 -11 10 -5 0
-7 -4 -4 -10z"/>
<path d="M2100 1041 c0 -17 31 -21 108 -14 56 5 70 9 52 14 -37 10 -160 10
-160 0z"/>
<path d="M1340 1030 c0 -5 5 -10 10 -10 6 0 10 5 10 10 0 6 -4 10 -10 10 -5 0
-10 -4 -10 -10z"/>
<path d="M832 998 c5 -15 28 -23 28 -10 0 5 -7 13 -16 16 -10 4 -14 1 -12 -6z"/>
<path d="M1448 1003 c7 -3 16 -2 19 1 4 3 -2 6 -13 5 -11 0 -14 -3 -6 -6z"/>
<path d="M1377 986 c-4 -10 -1 -13 8 -9 8 3 12 9 9 14 -7 12 -11 11 -17 -5z"/>
<path d="M1280 981 c0 -5 5 -13 10 -16 6 -3 10 -2 10 4 0 5 -4 13 -10 16 -5 3
-10 2 -10 -4z"/>
<path d="M1430 986 c0 -2 7 -6 15 -10 8 -3 15 -1 15 4 0 6 -7 10 -15 10 -8 0
-15 -2 -15 -4z"/>
<path d="M1201 964 c0 -11 3 -14 6 -6 3 7 2 16 -1 19 -3 4 -6 -2 -5 -13z"/>
<path d="M895 950 c-3 -5 -1 -10 4 -10 6 0 11 5 11 10 0 6 -2 10 -4 10 -3 0
-8 -4 -11 -10z"/>
<path d="M969 942 c-13 -15 -12 -16 3 -4 13 10 17 10 21 0 4 -9 6 -9 6 -1 2
20 -16 24 -30 5z"/>
<path d="M1110 950 c0 -5 5 -10 10 -10 6 0 10 5 10 10 0 6 -4 10 -10 10 -5 0
-10 -4 -10 -10z"/>
<path d="M2311 885 l1 -70 9 60 c6 38 5 63 -1 69 -7 7 -10 -14 -9 -59z"/>
<path d="M1061 904 c0 -11 3 -14 6 -6 3 7 2 16 -1 19 -3 4 -6 -2 -5 -13z"/>
<path d="M1160 910 c0 -5 5 -10 10 -10 6 0 10 5 10 10 0 6 -4 10 -10 10 -5 0
-10 -4 -10 -10z"/>
<path d="M915 890 c-3 -5 -1 -10 4 -10 6 0 11 5 11 10 0 6 -2 10 -4 10 -3 0
-8 -4 -11 -10z"/>
<path d="M1375 890 c3 -5 8 -10 11 -10 2 0 4 5 4 10 0 6 -5 10 -11 10 -5 0 -7
-4 -4 -10z"/>
<path d="M955 880 c-3 -5 -1 -10 4 -10 6 0 11 5 11 10 0 6 -2 10 -4 10 -3 0
-8 -4 -11 -10z"/>
<path d="M1105 860 c3 -5 8 -10 11 -10 2 0 4 5 4 10 0 6 -5 10 -11 10 -5 0 -7
-4 -4 -10z"/>
<path d="M1016 852 c-3 -5 1 -9 9 -9 8 0 12 4 9 9 -3 4 -7 8 -9 8 -2 0 -6 -4
-9 -8z"/>
<path d="M1400 849 c0 -5 5 -7 10 -4 6 3 10 8 10 11 0 2 -4 4 -10 4 -5 0 -10
-5 -10 -11z"/>
<path d="M1180 810 c0 -5 5 -10 11 -10 5 0 7 5 4 10 -3 6 -8 10 -11 10 -2 0
-4 -4 -4 -10z"/>
<path d="M1065 800 c3 -5 8 -10 11 -10 2 0 4 5 4 10 0 6 -5 10 -11 10 -5 0 -7
-4 -4 -10z"/>
<path d="M1037 789 c7 -7 15 -10 18 -7 3 3 -2 9 -12 12 -14 6 -15 5 -6 -5z"/>
<path d="M1080 776 c0 -2 7 -6 15 -10 8 -3 15 -1 15 4 0 6 -7 10 -15 10 -8 0
-15 -2 -15 -4z"/>
<path d="M2298 739 c-9 -5 -15 -16 -12 -24 7 -17 -41 -41 -97 -47 -9 -1 -16
-7 -16 -13 0 -8 11 -8 39 -1 21 6 38 14 38 18 0 4 11 8 25 8 25 0 49 30 43 55
-2 10 -8 11 -20 4z"/>
<path d="M1993 705 c32 -19 62 -35 67 -35 5 0 15 -8 22 -18 15 -20 63 -43 72
-35 12 13 6 32 -9 27 -8 -4 -49 16 -94 45 -44 28 -88 51 -98 51 -10 0 8 -16
40 -35z"/>
<path d="M1214 606 c-42 -19 -95 -75 -129 -138 -38 -70 -46 -181 -19 -260 25
-73 35 -81 33 -26 -2 28 -6 45 -12 41 -6 -3 -7 -1 -3 5 4 7 2 12 -3 12 -7 0
-11 23 -10 58 0 45 2 52 10 34 5 -13 11 -33 13 -45 19 -93 23 -132 22 -205 -1
-60 2 -82 12 -82 8 0 10 8 6 24 -4 17 1 31 15 45 12 12 21 27 21 35 0 8 7 22
17 31 15 15 14 18 -10 41 -15 14 -27 29 -27 34 0 17 18 11 35 -12 l16 -23 16
23 c15 21 17 22 34 6 26 -23 24 -67 -5 -101 -30 -36 -59 -93 -52 -101 9 -8 33
25 59 78 21 44 22 44 25 16 2 -18 -4 -36 -17 -50 -22 -23 -28 -46 -12 -46 5 0
13 9 16 21 4 11 12 18 19 16 10 -4 12 14 12 68 -1 40 -4 71 -7 69 -4 -2 -9 5
-12 15 -3 14 2 20 18 23 22 5 23 2 31 -86 4 -50 6 -99 5 -108 -1 -11 4 -18 13
-18 19 0 19 0 5 112 -11 80 -10 90 6 108 25 28 91 137 116 193 24 52 33 55 67
29 21 -16 22 -20 8 -31 -26 -21 -18 -35 9 -17 31 20 49 20 80 0 13 -9 30 -14
36 -12 7 2 -26 24 -72 48 -46 24 -123 67 -170 96 -69 43 -173 96 -182 94 -1
-1 -16 -7 -33 -14z m63 -19 c11 4 14 2 11 -8 -3 -8 -23 -17 -47 -20 -23 -3
-47 -11 -53 -17 -18 -18 -32 -14 -17 4 16 20 83 52 87 42 2 -4 10 -4 19 -1z
m68 -41 c16 -6 17 -9 5 -16 -8 -5 -11 -12 -7 -16 3 -4 13 -2 20 5 15 12 47 5
47 -10 0 -5 5 -9 10 -9 6 0 19 -9 30 -20 l21 -21 -32 -64 c-19 -40 -38 -65
-48 -65 -11 0 -12 -3 -4 -8 8 -5 8 -12 -3 -26 -11 -16 -16 -17 -29 -6 -19 16
-32 6 -16 -13 6 -8 8 -22 5 -32 -6 -14 -17 -16 -65 -13 -33 2 -59 2 -59 -1 0
-3 -18 -5 -41 -5 -43 1 -76 31 -65 60 3 8 -5 32 -18 52 -21 34 -22 40 -10 74
21 61 60 105 100 112 19 4 32 11 29 16 -3 5 20 6 51 3 46 -5 55 -3 49 7 -5 7
-4 11 1 8 5 -3 18 -8 29 -12z m-181 -391 c3 -8 -3 -24 -13 -36 -17 -21 -17
-21 -17 19 1 39 18 48 30 17z"/>
<path d="M1350 470 c0 -5 7 -10 15 -10 8 0 15 5 15 10 0 6 -7 10 -15 10 -8 0
-15 -4 -15 -10z"/>
<path d="M1310 437 c-12 -21 -12 -21 6 -7 10 8 20 15 22 16 2 1 -1 4 -5 7 -5
3 -15 -4 -23 -16z"/>
<path d="M1384 438 c-16 -13 -30 -31 -31 -42 0 -10 2 -14 6 -10 3 5 19 24 35
42 35 38 31 41 -10 10z"/>
<path d="M1170 423 c0 -5 -11 -21 -25 -37 -26 -30 -31 -46 -17 -46 11 0 42 34
42 45 0 5 7 17 17 27 15 17 15 18 0 18 -10 0 -17 -3 -17 -7z"/>
<path d="M1286 367 c-20 -18 -36 -38 -36 -43 0 -5 4 -4 8 1 4 6 24 25 45 43
21 17 34 32 29 32 -5 0 -26 -15 -46 -33z"/>
<path d="M1335 361 c-7 -12 12 -24 25 -16 11 7 4 25 -10 25 -5 0 -11 -4 -15
-9z"/>
<path d="M1271 311 c-16 -12 -20 -21 -12 -25 6 -4 11 -3 11 3 0 5 14 12 30 16
17 4 30 11 30 16 0 15 -34 10 -59 -10z"/>
<path d="M2161 606 c12 -12 132 -76 136 -72 4 3 -21 19 -94 59 -28 16 -52 23
-42 13z"/>
<path d="M2284 489 c-31 -51 -222 -440 -226 -462 -9 -48 13 -24 36 38 12 33
54 119 94 191 40 73 72 137 72 143 0 6 4 11 9 11 7 0 19 25 25 52 0 3 4 10 9
14 4 4 7 11 7 16 0 12 -18 10 -26 -3z"/>
<path d="M1950 376 c0 -5 69 -46 77 -46 3 0 -6 11 -21 25 -23 21 -56 34 -56
21z"/>
<path d="M1000 340 c0 -5 5 -10 10 -10 6 0 10 5 10 10 0 6 -4 10 -10 10 -5 0
-10 -4 -10 -10z"/>
<path d="M1507 324 c-10 -13 -13 -24 -8 -24 10 0 36 39 29 45 -2 2 -11 -8 -21
-21z"/>
<path d="M2052 318 c5 -15 37 -18 41 -3 1 6 -9 12 -22 13 -16 3 -22 -1 -19
-10z"/>
<path d="M1480 275 c-6 -8 -10 -19 -8 -26 2 -6 9 0 16 15 13 29 10 33 -8 11z"/>
<path d="M712 245 c-12 -14 -18 -25 -14 -25 5 0 18 11 30 25 12 14 18 25 14
25 -5 0 -18 -11 -30 -25z"/>
<path d="M644 179 c-29 -32 -29 -32 -2 -15 14 10 29 24 32 32 8 20 3 18 -30
-17z"/>
<path d="M1416 165 c-11 -19 -23 -35 -28 -35 -5 0 -6 -5 -3 -10 8 -12 23 3 48
48 10 17 14 32 10 32 -5 0 -17 -16 -27 -35z"/>
<path d="M1225 171 c3 -5 -6 -26 -19 -46 -14 -20 -28 -45 -31 -56 -4 -11 -11
-17 -16 -14 -5 4 -9 -5 -9 -18 0 -14 6 -24 15 -24 8 0 15 5 15 10 0 14 53 121
64 128 10 8 -1 29 -15 29 -6 0 -8 -4 -4 -9z"/>
<path d="M575 110 c-10 -11 -16 -22 -13 -25 2 -3 14 6 26 20 26 30 13 34 -13
5z"/>
<path d="M508 43 c-18 -21 -31 -43 -25 -43 2 0 16 13 30 30 15 17 23 30 19 30
-5 0 -16 -8 -24 -17z"/>
</g>
</svg>
